<?xml version="1.0" encoding="iso-8859-1"?>
<!-- Generator: Adobe Illustrator 16.0.0, SVG Export Plug-In . SVG Version: 6.00 Build 0)  -->
<!DOCTYPE svg PUBLIC "-//W3C//DTD SVG 1.1//EN" "http://www.w3.org/Graphics/SVG/1.1/DTD/svg11.dtd">
<svg version="1.1" id="Capa_1" xmlns="http://www.w3.org/2000/svg" xmlns:xlink="http://www.w3.org/1999/xlink" x="0px" y="0px"
	 width="612px" height="612px" viewBox="0 0 612 612" style="enable-background:new 0 0 612 612;" xml:space="preserve">
<g>
	<g>
		<g id="Cancel">
			<g>
				<path d="M306,0C136.992,0,0,136.992,0,306c0,168.988,136.992,306,306,306s306-137.012,306-306C612,136.992,475.008,0,306,0z
					 M306,535.5C179.45,535.5,76.5,432.55,76.5,306c0-49.515,15.912-95.281,42.687-132.804l319.636,319.636
					C401.281,519.588,355.515,535.5,306,535.5z M492.832,438.804L173.196,119.187C210.719,92.412,256.485,76.5,306,76.5
					c126.55,0,229.5,102.95,229.5,229.5C535.5,355.515,519.588,401.281,492.832,438.804z"/>
			</g>
		</g>
	</g>
</g>
<g>
</g>
<g>
</g>
<g>
</g>
<g>
</g>
<g>
</g>
<g>
</g>
<g>
</g>
<g>
</g>
<g>
</g>
<g>
</g>
<g>
</g>
<g>
</g>
<g>
</g>
<g>
</g>
<g>
</g>
</svg>
